<svg width="28" height="28" viewBox="0 0 28 28" fill="none" xmlns="http://www.w3.org/2000/svg">
<path fill-rule="evenodd" clip-rule="evenodd" d="M12.0039 2.29289C11.6133 1.90237 10.9802 1.90237 10.5896 2.29289C10.1991 2.68342 10.1991 3.31658 10.5896 3.70711L12.0286 5.14603H10C6.68629 5.14603 4 7.83232 4 11.146V18.8912C4 22.2049 6.68629 24.8912 10 24.8912H17.7452C21.0589 24.8912 23.7452 22.2049 23.7452 18.8912V11.146C23.7452 7.83232 21.0589 5.14603 17.7452 5.14603H15.7159L17.1548 3.70711C17.5453 3.31658 17.5453 2.68342 17.1548 2.29289C16.7643 1.90237 16.1311 1.90237 15.7406 2.29289L13.8722 4.16124L12.0039 2.29289ZM12.6122 15.3195L8.27034 16.5387C7.73862 16.688 7.18654 16.378 7.03724 15.8463C6.88793 15.3146 7.19794 14.7625 7.72966 14.6132L12.7067 13.2156C13.6635 12.947 14.6122 13.666 14.6122 14.6598V15.5584L18.6497 14.0483C19.167 13.8549 19.7432 14.1174 19.9366 14.6347C20.1301 15.1519 19.8676 15.7281 19.3503 15.9216L14.6377 17.6842C13.6573 18.0508 12.6122 17.326 12.6122 16.2792V15.3195Z" fill="black"/>
</svg>
