<svg width="28" height="28" viewBox="0 0 28 28" fill="none" xmlns="http://www.w3.org/2000/svg">
<mask id="path-1-inside-1_2_139" fill="white">
<path fill-rule="evenodd" clip-rule="evenodd" d="M9.99995 3H13.7344L13.8083 3.12464L16.1063 6.99902L16.755 8.11113H12.6829L11.5481 6.16576L9.73323 3.00499C9.82173 3.00167 9.91065 3 9.99995 3ZM3.25776 8.11113C3.87097 5.91776 5.52573 4.15921 7.65517 3.40237L9.81534 7.16462L9.81532 7.16463L9.81878 7.17056L10.3674 8.11113H3.25776ZM2.99995 18V10.1111H11.5341L11.5449 10.1296L11.5765 10.1111H12.0794H25V18C25 21.866 21.8659 25 18 25H9.99995C6.13396 25 2.99995 21.866 2.99995 18ZM18 3C21.2115 3 23.9178 5.16269 24.7421 8.11113H19.0704L19.0543 8.08345L17.832 5.98821L17.8321 5.9882L17.8284 5.98195L16.0597 3H18ZM13.0752 12.8928C12.4179 12.5337 11.6137 12.9981 11.5961 13.7469L11.4742 18.9189C11.4559 19.699 12.2982 20.1987 12.974 19.8085L17.6358 17.117C18.3116 16.7268 18.3001 15.7475 17.6153 15.3734L13.0752 12.8928Z"/>
</mask>
<path fill-rule="evenodd" clip-rule="evenodd" d="M9.99995 3H13.7344L13.8083 3.12464L16.1063 6.99902L16.755 8.11113H12.6829L11.5481 6.16576L9.73323 3.00499C9.82173 3.00167 9.91065 3 9.99995 3ZM3.25776 8.11113C3.87097 5.91776 5.52573 4.15921 7.65517 3.40237L9.81534 7.16462L9.81532 7.16463L9.81878 7.17056L10.3674 8.11113H3.25776ZM2.99995 18V10.1111H11.5341L11.5449 10.1296L11.5765 10.1111H12.0794H25V18C25 21.866 21.8659 25 18 25H9.99995C6.13396 25 2.99995 21.866 2.99995 18ZM18 3C21.2115 3 23.9178 5.16269 24.7421 8.11113H19.0704L19.0543 8.08345L17.832 5.98821L17.8321 5.9882L17.8284 5.98195L16.0597 3H18ZM13.0752 12.8928C12.4179 12.5337 11.6137 12.9981 11.5961 13.7469L11.4742 18.9189C11.4559 19.699 12.2982 20.1987 12.974 19.8085L17.6358 17.117C18.3116 16.7268 18.3001 15.7475 17.6153 15.3734L13.0752 12.8928Z" fill="black"/>
<path d="M13.7344 3L15.4546 1.97973L14.8735 1H13.7344V3ZM13.8083 3.12464L12.0881 4.14491V4.14491L13.8083 3.12464ZM16.1063 6.99902L17.8338 5.99128L17.8302 5.985L17.8265 5.97875L16.1063 6.99902ZM16.755 8.11113V10.1111H20.2371L18.4826 7.10339L16.755 8.11113ZM12.6829 8.11113L10.9553 9.11887L11.5341 10.1111H12.6829V8.11113ZM11.5481 6.16576L9.81358 7.16165L9.8205 7.17351L11.5481 6.16576ZM9.73323 3.00499L9.65836 1.00639L6.35062 1.13031L7.9988 4.00085L9.73323 3.00499ZM7.65517 3.40237L9.3896 2.40651L8.55837 0.958793L6.98538 1.51786L7.65517 3.40237ZM3.25776 8.11113L1.33162 7.57263L0.621927 10.1111H3.25776V8.11113ZM9.81534 7.16462L10.8383 8.8832L12.5301 7.87617L11.5498 6.16875L9.81534 7.16462ZM9.81532 7.16463L8.79235 5.44604L7.08894 6.45997L8.08773 8.17231L9.81532 7.16463ZM9.81878 7.17056L8.09118 8.17824L8.09122 8.1783L9.81878 7.17056ZM10.3674 8.11113V10.1111H13.8495L12.095 7.10339L10.3674 8.11113ZM2.99995 10.1111V8.11113H0.999954V10.1111H2.99995ZM11.5341 10.1111L13.2617 9.10341L12.6829 8.11113H11.5341V10.1111ZM11.5449 10.1296L9.8173 11.1373L10.825 12.8649L12.5526 11.8571L11.5449 10.1296ZM11.5765 10.1111V8.11113H11.0358L10.5687 8.38358L11.5765 10.1111ZM25 10.1111H27V8.11113H25V10.1111ZM24.7421 8.11113V10.1111H27.378L26.6683 7.57263L24.7421 8.11113ZM19.0704 8.11113L17.3429 9.1189L17.9217 10.1111H19.0704V8.11113ZM19.0543 8.08345L17.3267 9.09119L17.3267 9.09122L19.0543 8.08345ZM17.832 5.98821L16.8243 4.26065L15.0967 5.2684L16.1045 6.99595L17.832 5.98821ZM17.8321 5.9882L18.8398 7.71575L20.5799 6.7007L19.5523 4.96799L17.8321 5.9882ZM17.8284 5.98195L19.5486 4.96174L19.5485 4.96167L17.8284 5.98195ZM16.0597 3V1H12.5482L14.3395 4.02027L16.0597 3ZM11.5961 13.7469L13.5955 13.794V13.794L11.5961 13.7469ZM13.0752 12.8928L14.0342 11.1377L14.0342 11.1377L13.0752 12.8928ZM11.4742 18.9189L9.47479 18.8718L11.4742 18.9189ZM12.974 19.8085L11.974 18.0764L11.974 18.0765L12.974 19.8085ZM17.6358 17.117L16.6358 15.3849H16.6358L17.6358 17.117ZM17.6153 15.3734L18.5742 13.6183L17.6153 15.3734ZM13.7344 1H9.99995V5H13.7344V1ZM15.5285 2.10437L15.4546 1.97973L12.0142 4.02027L12.0881 4.14491L15.5285 2.10437ZM17.8265 5.97875L15.5285 2.10437L12.0881 4.14491L14.3861 8.01929L17.8265 5.97875ZM18.4826 7.10339L17.8338 5.99128L14.3787 8.00676L15.0275 9.11887L18.4826 7.10339ZM12.6829 10.1111H16.755V6.11113H12.6829V10.1111ZM9.8205 7.17351L10.9553 9.11887L14.4104 7.10339L13.2756 5.15802L9.8205 7.17351ZM7.9988 4.00085L9.81362 7.16163L13.2825 5.1699L11.4677 2.00913L7.9988 4.00085ZM9.99995 1C9.88567 1 9.77179 1.00214 9.65836 1.00639L9.8081 5.00359C9.87166 5.0012 9.93562 5 9.99995 5V1ZM6.98538 1.51786C4.24691 2.49116 2.12095 4.74929 1.33162 7.57263L5.18391 8.64963C5.62099 7.08622 6.80455 5.82727 8.32496 5.28688L6.98538 1.51786ZM11.5498 6.16875L9.3896 2.40651L5.92074 4.39823L8.08091 8.16048L11.5498 6.16875ZM10.8383 8.88321L10.8383 8.8832L8.79237 5.44603L8.79235 5.44604L10.8383 8.88321ZM11.5464 6.16287L11.5429 6.15695L8.08773 8.17231L8.09118 8.17824L11.5464 6.16287ZM12.095 7.10339L11.5463 6.16281L8.09122 8.1783L8.63989 9.11887L12.095 7.10339ZM3.25776 10.1111H10.3674V6.11113H3.25776V10.1111ZM0.999954 10.1111V18H4.99995V10.1111H0.999954ZM11.5341 8.11113H2.99995V12.1111H11.5341V8.11113ZM13.2724 9.12186L13.2617 9.10341L9.80654 11.1188L9.8173 11.1373L13.2724 9.12186ZM10.5687 8.38358L10.5371 8.40202L12.5526 11.8571L12.5842 11.8387L10.5687 8.38358ZM12.0794 8.11113H11.5765V12.1111H12.0794V8.11113ZM25 8.11113H12.0794V12.1111H25V8.11113ZM27 18V10.1111H23V18H27ZM18 27C22.9705 27 27 22.9706 27 18H23C23 20.7614 20.7614 23 18 23V27ZM9.99995 27H18V23H9.99995V27ZM0.999954 18C0.999954 22.9706 5.02939 27 9.99995 27V23C7.23853 23 4.99995 20.7614 4.99995 18H0.999954ZM26.6683 7.57263C25.6087 3.78276 22.1319 1 18 1V5C20.291 5 22.2269 6.54263 22.816 8.64963L26.6683 7.57263ZM19.0704 10.1111H24.7421V6.11113H19.0704V10.1111ZM17.3267 9.09122L17.3429 9.1189L20.798 7.10335L20.7818 7.07567L17.3267 9.09122ZM16.1045 6.99595L17.3267 9.09119L20.7818 7.07571L19.5596 4.98047L16.1045 6.99595ZM16.8243 4.26064L16.8243 4.26065L18.8398 7.71577L18.8398 7.71575L16.8243 4.26064ZM16.1081 7.00215L16.1118 7.00841L19.5523 4.96799L19.5486 4.96174L16.1081 7.00215ZM14.3395 4.02027L16.1082 7.00222L19.5485 4.96167L17.7799 1.97973L14.3395 4.02027ZM18 1H16.0597V5H18V1ZM13.5955 13.794C13.5779 14.5428 12.7736 15.0071 12.1163 14.648L14.0342 11.1377C12.0623 10.0604 9.64952 11.4534 9.59661 13.6998L13.5955 13.794ZM13.4737 18.966L13.5955 13.794L9.59661 13.6998L9.47479 18.8718L13.4737 18.966ZM11.974 18.0765C12.6497 17.6863 13.4921 18.1859 13.4737 18.966L9.47479 18.8718C9.41967 21.2121 11.9467 22.711 13.974 21.5406L11.974 18.0765ZM16.6358 15.3849L11.974 18.0764L13.974 21.5406L18.6358 18.849L16.6358 15.3849ZM16.6564 17.1285C15.9716 16.7544 15.9601 15.7751 16.6358 15.3849L18.6358 18.849C20.6631 17.6786 20.6285 14.7407 18.5742 13.6183L16.6564 17.1285ZM12.1163 14.648L16.6564 17.1285L18.5742 13.6183L14.0342 11.1377L12.1163 14.648Z" fill="black" mask="url(#path-1-inside-1_2_139)"/>
</svg>
