<svg width="24" height="21" viewBox="0 0 24 21" fill="none" xmlns="http://www.w3.org/2000/svg">
    <path fill-rule="evenodd" clip-rule="evenodd"
        d="M23.1226 1.62889L12.4374 19.8824C12.101 20.4571 11.2383 20.341 11.0658 19.6978L8.31543 9.44223L8.29276 9.41018C8.27233 9.37479 8.25511 9.33844 8.24101 9.30145L0.721173 1.78033C0.2487 1.30786 0.583325 0.5 1.2515 0.5H22.4754C23.0547 0.5 23.4153 1.1289 23.1226 1.62889ZM20.4224 3.27211L9.85082 9.37561L12.0496 17.5758L20.4224 3.27211ZM3.06216 2L19.6274 1.99907L9.12507 8.06257L3.06216 2Z"
        fill="#262626" />
    <path
        d="M12.4374 19.8824L12.2217 19.7561L12.2217 19.7561L12.4374 19.8824ZM23.1226 1.62889L23.3384 1.75519L23.3384 1.75519L23.1226 1.62889ZM11.0658 19.6978L10.8243 19.7626L10.8243 19.7626L11.0658 19.6978ZM8.31543 9.44223L8.5569 9.37747C8.54924 9.34893 8.53659 9.32197 8.51952 9.29784L8.31543 9.44223ZM8.29276 9.41018L8.07625 9.53518C8.08009 9.54183 8.08423 9.54829 8.08866 9.55456L8.29276 9.41018ZM8.24101 9.30145L8.47462 9.21242C8.46208 9.1795 8.44271 9.1496 8.4178 9.12468L8.24101 9.30145ZM0.721173 1.78033L0.897965 1.60357L0.89795 1.60355L0.721173 1.78033ZM9.85082 9.37561L9.72582 9.1591C9.62782 9.21568 9.58004 9.33105 9.60935 9.44035L9.85082 9.37561ZM20.4224 3.27211L20.6381 3.3984C20.6954 3.30051 20.6797 3.17631 20.5997 3.09586C20.5197 3.01541 20.3956 2.99888 20.2974 3.0556L20.4224 3.27211ZM12.0496 17.5758L11.8081 17.6405C11.8343 17.7379 11.9163 17.8101 12.0163 17.8235C12.1162 17.837 12.2144 17.7891 12.2654 17.702L12.0496 17.5758ZM19.6274 1.99907L19.7524 2.21557C19.8504 2.159 19.8981 2.04365 19.8688 1.93436C19.8396 1.82506 19.7405 1.74906 19.6273 1.74907L19.6274 1.99907ZM3.06216 2L3.06215 1.75C2.96104 1.75001 2.86988 1.81092 2.83119 1.90434C2.7925 1.99776 2.81389 2.10529 2.88539 2.17678L3.06216 2ZM9.12507 8.06257L8.9483 8.23935C9.02831 8.31936 9.15208 8.33565 9.25007 8.27907L9.12507 8.06257ZM12.6532 20.0087L23.3384 1.75519L22.9069 1.50259L12.2217 19.7561L12.6532 20.0087ZM10.8243 19.7626C11.0544 20.6202 12.2046 20.775 12.6532 20.0087L12.2217 19.7561C11.9974 20.1392 11.4223 20.0619 11.3073 19.6331L10.8243 19.7626ZM8.07396 9.50699L10.8243 19.7626L11.3073 19.6331L8.5569 9.37747L8.07396 9.50699ZM8.08866 9.55456L8.11134 9.58661L8.51952 9.29784L8.49685 9.26579L8.08866 9.55456ZM8.0074 9.39047C8.02622 9.43984 8.04915 9.48823 8.07625 9.53518L8.50926 9.28518C8.49551 9.26135 8.484 9.23703 8.47462 9.21242L8.0074 9.39047ZM0.544382 1.95709L8.06422 9.47821L8.4178 9.12468L0.897965 1.60357L0.544382 1.95709ZM1.2515 0.25C0.360599 0.25 -0.0855681 1.32714 0.544397 1.95711L0.89795 1.60355C0.582968 1.28857 0.806051 0.75 1.2515 0.75V0.25ZM22.4754 0.25H1.2515V0.75H22.4754V0.25ZM23.3384 1.75519C23.7286 1.08854 23.2479 0.25 22.4754 0.25V0.75C22.8616 0.75 23.102 1.16927 22.9069 1.50259L23.3384 1.75519ZM9.97582 9.59211L20.5474 3.48861L20.2974 3.0556L9.72582 9.1591L9.97582 9.59211ZM12.2911 17.511L10.0923 9.31086L9.60935 9.44035L11.8081 17.6405L12.2911 17.511ZM20.2066 3.14581L11.8339 17.4495L12.2654 17.702L20.6381 3.3984L20.2066 3.14581ZM19.6273 1.74907L3.06215 1.75L3.06218 2.25L19.6274 2.24907L19.6273 1.74907ZM9.25007 8.27907L19.7524 2.21557L19.5024 1.78256L9.00007 7.84606L9.25007 8.27907ZM2.88539 2.17678L8.9483 8.23935L9.30184 7.88579L3.23894 1.82322L2.88539 2.17678Z"
        fill="#262626" />
</svg>